# xmcd CD database file
#
# Track frame offsets:
#	150
#	25400
#	54250
#	74510
#	100852
#	124930
#	157982
#	179637
#	208462
#	235497
#	262865
#	286490
#
# Disc length: 4148 seconds
#
# Revision: 0
# Processed by: cddbd v1.4PL0 Copyright (c) Steve Scherf et al.
# Submitted via: CDex 1.50Beta7
#
DISCID=b510320c
DTITLE=Dave Weckl - Perpetual Motion
DYEAR=2002
DGENRE=Jazz
TTITLE0=Double Up
TTITLE1=Child's Play
TTITLE2=Mesmer-Eyes
TTITLE3=Skipper
TTITLE4=Oasis
TTITLE5=7th Sense
TTITLE6=Overdrive
TTITLE7=12 Acres
TTITLE8=Slingshot
TTITLE9=Beacon
TTITLE10=Tiempo de Festival
TTITLE11=Spanky
EXTD=YEAR: 2002
EXTT0=
EXTT1=
EXTT2=
EXTT3=
EXTT4=
EXTT5=
EXTT6=
EXTT7=
EXTT8=
EXTT9=
EXTT10=
EXTT11=
PLAYORDER=
